<?xml version="1.0" standalone="no"?>
<!DOCTYPE svg PUBLIC "-//W3C//DTD SVG 20010904//EN"
 "http://www.w3.org/TR/2001/REC-SVG-20010904/DTD/svg10.dtd">
<svg version="1.0" xmlns="http://www.w3.org/2000/svg"
 width="800.000000pt" height="800.000000pt" viewBox="0 0 800.000000 800.000000"
 preserveAspectRatio="xMidYMid meet">

<g transform="translate(0.000000,800.000000) scale(0.100000,-0.100000)"
fill="#000000" stroke="none">
<path d="M5 7988 c-3 -7 -4 -1806 -3 -3998 l3 -3985 3995 0 3995 0 0 3995 0
3995 -3993 3 c-3189 2 -3994 0 -3997 -10z m6770 -2963 c147 -42 263 -133 324
-254 57 -112 73 -194 78 -403 l5 -188 -251 0 -251 0 0 129 c0 153 -15 274 -39
316 -47 83 -203 86 -263 5 -43 -60 -48 -129 -48 -775 0 -647 5 -716 48 -775
62 -83 224 -75 266 14 22 47 36 171 36 329 l0 127 251 0 252 0 -6 -192 c-6
-221 -18 -282 -78 -406 -68 -141 -173 -224 -339 -269 -93 -26 -407 -26 -500 0
-263 71 -402 256 -440 585 -8 65 -10 279 -7 652 4 600 5 614 63 769 31 82 101
187 154 230 72 57 174 100 300 124 14 3 106 4 205 2 132 -2 196 -7 240 -20z
m-4930 -20 c208 -44 345 -182 407 -410 18 -68 21 -106 21 -255 0 -147 -4 -188
-21 -253 -56 -206 -175 -319 -397 -378 -62 -16 -121 -22 -267 -26 l-188 -6 0
-493 0 -494 -260 0 -260 0 0 1165 0 1165 448 0 c355 0 461 -3 517 -15z m1396
-660 c80 -423 129 -661 133 -645 10 39 266 1303 266 1312 0 4 122 8 270 8
l270 0 0 -89 c0 -128 28 -1745 35 -2013 l6 -228 -186 0 -185 0 0 33 c0 61 -40
1462 -43 1481 -1 11 -55 -288 -121 -665 -65 -376 -125 -721 -134 -766 l-15
-83 -163 0 c-90 0 -164 2 -164 5 0 17 -282 1530 -285 1534 -3 2 -5 -56 -5
-130 0 -74 -7 -406 -15 -739 -8 -333 -15 -620 -15 -637 l0 -33 -185 0 -185 0
0 113 c1 90 38 2205 40 2215 0 1 125 1 277 0 l277 -3 127 -670z m2399 485 l0
-190 -175 0 -175 0 0 -975 0 -975 -260 0 -260 0 0 975 0 975 -180 0 -180 0 0
190 0 190 615 0 615 0 0 -190z"/>
<path d="M1400 4350 l0 -312 128 4 c178 6 218 30 248 141 16 61 18 262 3 327
-5 25 -20 59 -32 77 -36 53 -76 66 -219 71 l-128 4 0 -312z"/>
</g>
</svg>
