<?xml version="1.0" standalone="no"?>
<!DOCTYPE svg PUBLIC "-//W3C//DTD SVG 20010904//EN"
 "http://www.w3.org/TR/2001/REC-SVG-20010904/DTD/svg10.dtd">
<svg version="1.0" xmlns="http://www.w3.org/2000/svg"
 width="800.000000pt" height="800.000000pt" viewBox="0 0 800.000000 800.000000"
 preserveAspectRatio="xMidYMid meet">
<metadata>
Created by potrace 1.11, written by Peter Selinger 2001-2013
</metadata>
<g transform="translate(0.000000,800.000000) scale(0.100000,-0.100000)"
fill="#000000" stroke="none">
<path d="M12 7988 c-17 -17 -17 -7959 0 -7976 17 -17 7959 -17 7976 0 17 17
17 7959 0 7976 -17 17 -7959 17 -7976 0z m6718 -2833 c215 -48 342 -165 410
-380 20 -60 24 -98 28 -277 l4 -208 -255 0 -255 0 -4 203 c-3 218 -9 242 -59
279 -59 44 -160 40 -212 -10 -57 -55 -58 -64 -55 -803 3 -661 3 -675 24 -719
34 -73 54 -85 139 -85 142 0 164 44 165 333 l0 192 256 0 256 0 -5 -207 c-5
-225 -14 -275 -67 -387 -66 -138 -159 -220 -306 -268 -153 -51 -387 -56 -557
-12 -206 53 -342 199 -409 439 -23 79 -23 88 -23 730 0 644 0 651 23 735 75
279 235 419 525 460 88 13 289 4 377 -15z m-4868 -33 c109 -30 174 -66 243
-136 103 -103 159 -252 172 -452 19 -320 -87 -566 -285 -660 -108 -51 -192
-66 -399 -71 l-193 -5 0 -494 0 -494 -260 0 -260 0 0 1171 0 1171 453 -4 c419
-5 458 -6 529 -26z m1242 19 c3 -5 60 -296 126 -647 67 -352 124 -649 128
-661 5 -15 53 204 141 635 74 361 136 663 139 670 3 9 66 12 268 12 203 0 266
-3 269 -12 2 -7 11 -479 19 -1048 9 -569 17 -1090 19 -1157 l4 -123 -187 0
-187 0 -6 148 c-4 81 -12 390 -18 687 -6 297 -14 560 -18 585 -5 36 -30 -88
-136 -688 l-129 -732 -166 0 -165 0 -133 728 c-74 400 -137 738 -141 751 -4
13 -13 -252 -19 -590 -7 -338 -15 -676 -19 -751 l-6 -138 -190 0 -190 0 7 258
c3 141 11 577 16 967 6 391 13 801 16 913 l6 202 274 0 c150 0 275 -4 278 -9z
m2526 -186 l0 -195 -175 0 -175 0 0 -975 0 -975 -265 0 -265 0 0 975 0 975
-180 0 -180 0 0 188 c0 104 3 192 7 195 3 4 282 7 620 7 l613 0 0 -195z"/>
<path d="M1400 4477 l0 -307 113 0 c130 0 169 9 209 47 45 43 62 117 62 268 0
119 -2 135 -26 186 -37 80 -77 98 -237 106 l-121 6 0 -306z"/>
</g>
</svg>
