<svg version="1" xmlns="http://www.w3.org/2000/svg" width="1066.667" height="1066.667" viewBox="0 0 800.000000 800.000000"><path d="M.5 1.2C.2 1.9.1 181.8.2 401l.3 398.5h799V.5L400.2.2C81.3 0 .8.2.5 1.2zM178 238.5V252h-24v135h-36V252H93v-27h85v13.5zm87.8-1.3l-.3 12.3-18.2.3-18.3.2v40h28v24h-28v49h37v24h-73V225h73.1l-.3 12.2zm57.8 26.3l16.3 38 .1-38.3V225h30v162.1l-12.2-.3-12.2-.3-15.8-40c-8.8-22-16.3-40.4-16.9-40.9-.5-.6-.9 14.5-.9 40.2V387h-30V224.9l12.6.3 12.7.3 16.3 38zm135.3-36.1c17.2 4.4 26.1 14.4 29.1 32.8 1.6 10.2 1.3 84.1-.4 93.1-3.3 17-11.4 26.2-27.5 31-5.7 1.7-10.5 2.1-36.3 2.4l-29.8.5V224.8l29.3.5c22.5.4 30.7.8 35.6 2.1zm124.9 9.8l-.3 12.3-18.2.3-18.3.2v40h28v24h-28v49h37v24h-73V225h73.1l-.3 12.2zm84-9.8c16.7 4.3 25.6 12.9 28.8 28 2.5 11.6 1.3 28.6-2.7 37.6-2.2 5-7.9 11.4-12.1 13.6-1.6.8-2.8 2.2-2.8 3.2 0 .9 4.7 18.2 10.5 38.4S700 385.4 700 386c0 .6-6.5 1-18.3 1h-18.3l-8.8-36-8.8-36H636v72h-36V224.8l30.8.5c23.9.3 32.1.8 37 2.1zM165.6 414.9c23.7 4.5 33.4 19.4 33.4 51.2v8.9h-34.8l-.3-14.3c-.5-16.2-1.3-18.7-7.4-20.7-4.6-1.5-9.6-.6-12.3 2.3-3.9 4.1-4.3 10-4 57.8.3 40.3.5 45.7 2 48.5.9 1.7 2.3 3.6 3.1 4.3 2.4 1.9 8.4 2.5 11.7 1.1 5.2-2.2 6.4-5.8 6.8-21.8l.4-14.2h35.1l-.6 14.2c-.3 8.3-1.2 16.2-2 18.9-6.5 20.1-20 28.9-44.7 28.9-24.6 0-37.5-8.3-45.1-29-2.4-6.4-2.4-7-2.7-50.5-.3-48.3 0-52.8 5.4-64.1 5.3-11.3 14.1-18.2 26.8-20.9 7.2-1.6 22.3-1.9 29.2-.6zm125.2 13.3l-.3 12.3-18.2.3-18.3.2v40h28v24h-28v49h37v24h-73V416h73.1l-.3 12.2zm57.8 26.3l16.3 38 .1-38.3V416h30v162.1l-12.2-.3-12.2-.3-15.8-40c-8.8-22-16.3-40.4-16.9-40.9-.5-.6-.9 14.5-.9 40.2V578h-30V415.9l12.6.3 12.7.3 16.3 38zm145.4-25V443h-24v135h-36V443h-25v-27h85v13.5zm82.8-11.1c16.7 4.3 25.6 12.9 28.8 28 2.5 11.6 1.3 28.6-2.7 37.6-2.2 5-7.9 11.4-12.1 13.6-1.6.8-2.8 2.2-2.8 3.2 0 .9 4.7 18.2 10.5 38.4S609 576.4 609 577c0 .6-6.5 1-18.3 1h-18.3l-8.8-36-8.8-36H545v72h-36V415.8l30.8.5c23.9.3 32.1.8 37 2.1zm124 9.8l-.3 12.3-18.2.3-18.3.2v40h28v24h-28v49h37v24h-73V416h73.1l-.3 12.2z"/><path d="M430 306v56h6.4c7 0 12-2.5 14.3-7 1-1.9 1.3-13.8 1.3-49.1v-46.6l-2.3-3.4c-2.7-4-7.1-5.8-14.4-5.8l-5.3-.1v56zM636 271.5v22.8l8.3-.5c10.2-.5 14.2-2.5 17.7-8.9 3.4-6.1 3.5-20 .3-27.1-2.9-6.3-6.4-8-17.5-8.6l-8.8-.4v22.7zM545 462.5v22.8l8.3-.5c10.2-.5 14.2-2.5 17.7-8.9 3.4-6.1 3.5-20 .3-27.1-2.9-6.3-6.4-8-17.5-8.6l-8.8-.4v22.7z"/></svg>