<svg version="1" xmlns="http://www.w3.org/2000/svg" width="1066.667" height="1066.667" viewBox="0 0 800.000000 800.000000"><path d="M375.5.6c-58.9 4.7-107.2 18-156.5 43C143.1 82.1 82.1 143.1 43.6 219 21.3 263.1 8.5 305.7 2.3 357c-2.4 20.2-2.4 65.8 0 86 6.2 51.3 19 93.9 41.3 138C100.4 693.2 206.8 772 331 793.9c24.7 4.4 39.3 5.5 69 5.5 29.7 0 44.3-1.1 69-5.5 89.6-15.8 171.6-61.8 231.2-129.8 48.5-55.3 81.1-123.2 93.7-195.1 4.4-24.9 5.5-39.3 5.5-69 0-29.7-1.1-44.3-5.5-69-14.7-83.1-55.8-160.5-116-218.5C613.8 50.7 533.8 13.1 444 2.5 431.1.9 386.6-.3 375.5.6zm300 284.8c20.8 5.7 33 18.2 38.7 39.5 1.5 5.8 2.1 11.9 2.5 26.3l.6 18.8h-50.1l-.4-18.8c-.4-16.4-.7-19.3-2.6-23.5-1.7-3.8-3-5.2-6.4-6.7-5.7-2.6-11.4-2.5-16.3.3-4.8 2.7-7.3 7.3-8.6 15.9-1.2 8.9-1.1 118.4.1 128.7 1.9 14.6 6.1 19.5 17.2 19.5 6.1.1 9.4-1.6 13-6.5 2.6-3.5 3.8-13.4 3.8-30.7V433h50.2l-.4 18.2c-.5 20.9-2.1 29.1-7.6 40.8-6.5 13.7-18.1 22.9-35.2 27.6-9.2 2.6-38.6 2.7-48 .1-16.8-4.5-29.3-13.9-36.2-27.2-9.1-17.7-9.8-24.5-9.8-90 .1-29.2.5-56.3 1-60.4 2.4-18.4 7.7-31.4 16.7-41.1 8.3-9 17.6-13.8 31.8-16.6 9.6-1.8 37.8-1.2 46 1zm-492.8 2.1c15.8 3 28.4 11.8 35.7 24.7 5.8 10.4 7.8 19.1 8.3 36.6.8 24.3-2.5 38.5-11.6 49.8-12.2 15.2-25.3 20-57.3 21.1l-17.8.6V519H88V286h43.4c34.2 0 45.1.3 51.3 1.5zm140.5 65.8c6.9 36.8 12.8 67 13 67.2.2.2 6.1-27.9 13.2-62.4 7-34.6 13.2-64.9 13.8-67.5l1-4.6h52.6l.6 6.2c.3 3.5 1 41.4 1.6 84.3.6 42.9 1.3 92.5 1.7 110.2l.6 32.3H384v-10.8c0-5.9-.7-35.2-1.5-65.2s-1.5-59.4-1.5-65.4c0-6-.2-10.7-.5-10.4-.3.3-6.4 33.6-13.5 73.9-7.2 40.4-13.2 74.4-13.5 75.6-.5 2.3-.8 2.3-16.5 2.3-14.3 0-15.9-.2-16.4-1.8-.2-.9-6.7-35.7-14.3-77.2-7.6-41.5-13.9-74.4-14-73-.3 3.3-3.3 134.2-3.3 144.2v7.8h-37.5l1.7-99.7c.9-54.9 1.7-107.3 1.7-116.6l.1-16.7 27.7.2 27.8.3 12.7 66.8zM563 305v19h-36v195h-51V324h-36v-38h123v19z"/><path d="M140 353v31h9.5c12.9 0 19.2-1.5 23.1-5.4 4.3-4.3 5.5-8.8 6.1-23.7 1.1-26.3-4.5-32.9-28.4-32.9H140v31z"/></svg>