<svg version="1" xmlns="http://www.w3.org/2000/svg" width="1066.667" height="1066.667" viewBox="0 0 800.000000 800.000000"><path d="M.5 1.2C.2 1.9.1 181.8.2 401l.3 398.5h799V.5L400.2.2C81.3 0 .8.2.5 1.2zm675 284.2c20.8 5.8 33 18.2 38.7 39.5 1.6 5.9 2.1 11.9 2.5 26.8l.6 19.3h-50.1l-.4-19.3c-.4-16.9-.7-19.8-2.6-24-3.6-8.1-13.3-10.9-22.2-6.5-9.8 5-10.2 9.2-9.8 86.3.4 55 .6 61.5 2.2 66.4 2.1 6.6 5.1 9.6 10.6 11.1 8.7 2.3 17.7-2 20.1-9.8.6-2 1.3-12.4 1.6-23l.5-19.2h50l-.4 18.2c-.5 20.9-2.1 29.1-7.6 40.8-6.6 14-17.8 22.8-35.3 27.6-9.1 2.6-38.5 2.6-47.9.1-18.1-4.9-29.5-13.8-36.8-28.7-8.8-18-9.5-24.7-8.9-95 .3-47.7.7-57.5 2-63.2 7-29 20.5-42.9 46.7-48.4 9.1-1.9 38.3-1.3 46.5 1zm-492.8 2.1c31.7 6 47.1 32.3 44.2 75.6-1.3 18.9-5.7 29.8-16.3 40.4-11.6 11.6-23.6 15.3-52.8 16.2l-17.8.6V519H88V286h43.4c34.2 0 45.1.3 51.3 1.5zm140.2 64.3c6.8 36.1 12.7 66.5 13 67.4.3.9 6.4-26.5 13.4-61 7.1-34.5 13.3-64.8 13.8-67.5l1.1-4.7h52.7l.5 5.2c.3 2.9 1 40.6 1.6 83.8.6 43.2 1.3 93.2 1.7 111.2l.6 32.8H384v-10.3c0-5.6-.7-34.7-1.5-64.7s-1.5-59.6-1.5-65.9c0-6.3-.2-11.2-.5-10.9-.3.3-6.4 33.5-13.5 73.9-7.2 40.4-13.2 74.4-13.5 75.6-.5 2.3-.8 2.3-16.5 2.3s-16 0-16.5-2.3c-.3-1.2-6.6-35.5-14.1-76.2s-13.8-74.2-14-74.4c-.2-.2-.4 2.9-.4 7s-.7 34.4-1.5 67.4c-.8 33-1.5 64.2-1.5 69.2v9.3h-37.5l.3-14.7c1-62.1 3.2-202.5 3.2-209.6V286h55.5l12.4 65.8zM563 305v19h-36v195h-51V324h-36v-38h123v19z"/><path d="M140 353.1v31.1l12.3-.4c13.9-.4 18.7-2.1 22.3-7.6 3.1-4.6 4.7-15.6 4.2-28.1-1-21.2-6.3-26.1-28.5-26.1H140v31.1z"/></svg>